HIERARCHY
ROOT Hips
{
	OFFSET 0.000000 71.427986 0.000000
	CHANNELS 6 Xposition Yposition Zposition Xrotation Yrotation Zrotation
	JOINT Pelvis
	{
		OFFSET 0.000000 0.000000 0.000000
		CHANNELS 3 Xrotation Yrotation Zrotation
		JOINT LeftUpLeg
		{
			OFFSET 6.797100 -2.508499 -1.318700
			CHANNELS 3 Xrotation Yrotation Zrotation
			JOINT LeftLeg
			{
				OFFSET 0.069008 -29.241863 0.690200
				CHANNELS 3 Xrotation Yrotation Zrotation
				JOINT LeftFoot
				{
					OFFSET -0.069008 -29.568123 -0.266800
					CHANNELS 3 Xrotation Yrotation Zrotation
					JOINT LeftToeBase
					{
						OFFSET 3.145500 -8.631000 16.059900
						CHANNELS 3 Xrotation Yrotation Zrotation
						End Site
						{
							OFFSET 0.000000 18.501587 0.000000
						}
					}
				}
			}
			JOINT Left_ShortSleeve
			{
				OFFSET 0.265923 -10.480953 1.153800
				CHANNELS 3 Xrotation Yrotation Zrotation
				End Site
				{
					OFFSET 1.725763 19.823879 0.000000
				}
			}
		}
		JOINT RightUpLeg
		{
			OFFSET -6.797100 -2.508499 -1.318700
			CHANNELS 3 Xrotation Yrotation Zrotation
			JOINT RightLeg
			{
				OFFSET -0.082453 -29.241932 0.688000
				CHANNELS 3 Xrotation Yrotation Zrotation
				JOINT RightFoot
				{
					OFFSET 0.082453 -29.568058 -0.264600
					CHANNELS 3 Xrotation Yrotation Zrotation
					JOINT RightToeBase
					{
						OFFSET -3.115300 -8.682800 16.113400
						CHANNELS 3 Xrotation Yrotation Zrotation
						End Site
						{
							OFFSET 0.000000 18.567114 0.000000
						}
					}
				}
			}
			JOINT Right_ShortSleeve
			{
				OFFSET -0.265923 -10.480953 1.153800
				CHANNELS 3 Xrotation Yrotation Zrotation
				End Site
				{
					OFFSET -1.725766 19.823910 0.000000
				}
			}
		}
	}
	JOINT Spine
	{
		OFFSET 0.000000 13.368103 0.470500
		CHANNELS 3 Xrotation Yrotation Zrotation
		JOINT Spine1
		{
			OFFSET 0.147000 13.837402 0.538800
			CHANNELS 3 Xrotation Yrotation Zrotation
			JOINT Spine2
			{
				OFFSET 0.168000 16.242897 -1.435500
				CHANNELS 3 Xrotation Yrotation Zrotation
				JOINT Neck
				{
					OFFSET 0.217200 18.631500 -1.679100
					CHANNELS 3 Xrotation Yrotation Zrotation
					JOINT Head
					{
						OFFSET 0.000000 6.599396 1.385900
						CHANNELS 3 Xrotation Yrotation Zrotation
						JOINT Hat
						{
							OFFSET -0.532200 27.220596 -10.096100
							CHANNELS 3 Xrotation Yrotation Zrotation
							End Site
							{
								OFFSET 0.000000 22.029861 0.000000
							}
						}
						JOINT HairD
						{
							OFFSET -10.777400 17.437393 -1.325900
							CHANNELS 3 Xrotation Yrotation Zrotation
							JOINT HairD1
							{
								OFFSET -3.290299 -11.051193 1.062200
								CHANNELS 3 Xrotation Yrotation Zrotation
								End Site
								{
									OFFSET 0.000000 11.579437 0.000000
								}
							}
						}
						JOINT HairB
						{
							OFFSET -10.777400 17.437393 1.467900
							CHANNELS 3 Xrotation Yrotation Zrotation
							JOINT HairB1
							{
								OFFSET -1.561200 -12.956299 3.590200
								CHANNELS 3 Xrotation Yrotation Zrotation
								End Site
								{
									OFFSET 0.000000 13.534866 0.000000
								}
							}
						}
						JOINT HairA
						{
							OFFSET 9.713100 17.437393 1.467900
							CHANNELS 3 Xrotation Yrotation Zrotation
							JOINT HairA1
							{
								OFFSET 1.561200 -12.956299 3.590200
								CHANNELS 3 Xrotation Yrotation Zrotation
								End Site
								{
									OFFSET 0.000000 13.534866 0.000000
								}
							}
						}
						JOINT HairC
						{
							OFFSET 9.713100 17.437393 -1.325900
							CHANNELS 3 Xrotation Yrotation Zrotation
							JOINT HairC1
							{
								OFFSET 3.290300 -11.051193 1.062200
								CHANNELS 3 Xrotation Yrotation Zrotation
								End Site
								{
									OFFSET 0.000000 11.579437 0.000000
								}
							}
						}
					}
				}
				JOINT LeftShoulder
				{
					OFFSET 5.101800 15.108002 -2.763700
					CHANNELS 3 Xrotation Yrotation Zrotation
					JOINT LeftArm
					{
						OFFSET 9.825497 2.506317 -1.597400
						CHANNELS 3 Xrotation Yrotation Zrotation
						JOINT LeftForeArm
						{
							OFFSET 21.966244 0.000000 0.000000
							CHANNELS 3 Xrotation Yrotation Zrotation
							JOINT LeftHand
							{
								OFFSET 33.879036 0.000000 0.000000
								CHANNELS 3 Xrotation Yrotation Zrotation
								JOINT LeftHandThumb1
								{
									OFFSET 6.715286 -2.359680 3.363841
									CHANNELS 3 Xrotation Yrotation Zrotation
									JOINT LeftHandThumb2
									{
										OFFSET 2.507072 -1.447464 1.447461
										CHANNELS 3 Xrotation Yrotation Zrotation
										JOINT LeftHandThumb3
										{
											OFFSET 2.898338 -1.673355 1.673357
											CHANNELS 3 Xrotation Yrotation Zrotation
											End Site
											{
												OFFSET -0.295959 3.727692 -0.131651
											}
										}
									}
								}
								JOINT LeftHandIndex1
								{
									OFFSET 14.190811 -0.254547 3.840278
									CHANNELS 3 Xrotation Yrotation Zrotation
									JOINT LeftHandIndex2
									{
										OFFSET 3.551727 0.000000 -0.000000
										CHANNELS 3 Xrotation Yrotation Zrotation
										JOINT LeftHandIndex3
										{
											OFFSET 2.894196 0.000000 0.000000
											CHANNELS 3 Xrotation Yrotation Zrotation
											End Site
											{
												OFFSET -1.000603 2.690872 0.366626
											}
										}
									}
								}
								JOINT LeftHandMiddle1
								{
									OFFSET 13.776489 0.000000 0.000000
									CHANNELS 3 Xrotation Yrotation Zrotation
									JOINT LeftHandMiddle2
									{
										OFFSET 3.438232 0.000000 0.000000
										CHANNELS 3 Xrotation Yrotation Zrotation
										JOINT LeftHandMiddle3
										{
											OFFSET 3.691551 0.000000 0.000000
											CHANNELS 3 Xrotation Yrotation Zrotation
											End Site
											{
												OFFSET -1.082298 3.499527 0.457670
											}
										}
									}
								}
								JOINT LeftHandRing1
								{
									OFFSET 13.966164 -0.268127 -3.067488
									CHANNELS 3 Xrotation Yrotation Zrotation
									JOINT LeftHandRing2
									{
										OFFSET 3.162567 0.000000 0.000000
										CHANNELS 3 Xrotation Yrotation Zrotation
										JOINT LeftHandRing3
										{
											OFFSET 3.324348 0.000000 0.000000
											CHANNELS 3 Xrotation Yrotation Zrotation
											End Site
											{
												OFFSET -0.861900 3.184998 0.405154
											}
										}
									}
								}
								JOINT LeftHandPinky1
								{
									OFFSET 13.131393 -0.168503 -5.746925
									CHANNELS 3 Xrotation Yrotation Zrotation
									JOINT LeftHandPinky2
									{
										OFFSET 2.849182 0.000000 0.000000
										CHANNELS 3 Xrotation Yrotation Zrotation
										JOINT LeftHandPinky3
										{
											OFFSET 2.805038 0.000000 0.000000
											CHANNELS 3 Xrotation Yrotation Zrotation
											End Site
											{
												OFFSET -0.882500 2.642609 0.325652
											}
										}
									}
								}
							}
							JOINT Left_Sleeve
							{
								OFFSET 6.592125 -0.646545 0.805568
								CHANNELS 3 Xrotation Yrotation Zrotation
								End Site
								{
									OFFSET -0.000179 20.275787 -0.000000
								}
							}
						}
					}
				}
				JOINT RightShoulder
				{
					OFFSET -5.731700 15.108002 -2.763700
					CHANNELS 3 Xrotation Yrotation Zrotation
					JOINT RightArm
					{
						OFFSET -9.825497 2.506317 -1.597400
						CHANNELS 3 Xrotation Yrotation Zrotation
						JOINT RightForeArm
						{
							OFFSET -21.966242 0.000000 0.000000
							CHANNELS 3 Xrotation Yrotation Zrotation
							JOINT RightHand
							{
								OFFSET -33.879032 0.000000 0.000000
								CHANNELS 3 Xrotation Yrotation Zrotation
								JOINT RightHandThumb1
								{
									OFFSET -6.715286 -2.359680 3.363841
									CHANNELS 3 Xrotation Yrotation Zrotation
									JOINT RightHandThumb2
									{
										OFFSET -2.507072 -1.447464 1.447461
										CHANNELS 3 Xrotation Yrotation Zrotation
										JOINT RightHandThumb3
										{
											OFFSET -2.898338 -1.673355 1.673357
											CHANNELS 3 Xrotation Yrotation Zrotation
											End Site
											{
												OFFSET 0.295959 3.727692 -0.131651
											}
										}
									}
								}
								JOINT RightHandIndex1
								{
									OFFSET -14.190811 -0.254547 3.840278
									CHANNELS 3 Xrotation Yrotation Zrotation
									JOINT RightHandIndex2
									{
										OFFSET -3.551727 0.000000 -0.000000
										CHANNELS 3 Xrotation Yrotation Zrotation
										JOINT RightHandIndex3
										{
											OFFSET -2.894196 0.000000 0.000000
											CHANNELS 3 Xrotation Yrotation Zrotation
											End Site
											{
												OFFSET 1.000603 2.690872 0.366626
											}
										}
									}
								}
								JOINT RightHandMiddle1
								{
									OFFSET -13.776489 0.000000 0.000000
									CHANNELS 3 Xrotation Yrotation Zrotation
									JOINT RightHandMiddle2
									{
										OFFSET -3.438232 0.000000 0.000000
										CHANNELS 3 Xrotation Yrotation Zrotation
										JOINT RightHandMiddle3
										{
											OFFSET -3.691551 0.000000 0.000000
											CHANNELS 3 Xrotation Yrotation Zrotation
											End Site
											{
												OFFSET 1.082298 3.499527 0.457670
											}
										}
									}
								}
								JOINT RightHandRing1
								{
									OFFSET -13.966164 -0.268127 -3.067488
									CHANNELS 3 Xrotation Yrotation Zrotation
									JOINT RightHandRing2
									{
										OFFSET -3.162567 0.000000 0.000000
										CHANNELS 3 Xrotation Yrotation Zrotation
										JOINT RightHandRing3
										{
											OFFSET -3.324348 0.000000 0.000000
											CHANNELS 3 Xrotation Yrotation Zrotation
											End Site
											{
												OFFSET 0.861900 3.184998 0.405154
											}
										}
									}
								}
								JOINT RightHandPinky1
								{
									OFFSET -13.131393 -0.168503 -5.746925
									CHANNELS 3 Xrotation Yrotation Zrotation
									JOINT RightHandPinky2
									{
										OFFSET -2.849182 0.000000 0.000000
										CHANNELS 3 Xrotation Yrotation Zrotation
										JOINT RightHandPinky3
										{
											OFFSET -2.805038 0.000000 0.000000
											CHANNELS 3 Xrotation Yrotation Zrotation
											End Site
											{
												OFFSET 0.882500 2.642609 0.325652
											}
										}
									}
								}
							}
							JOINT Right_Sleeve
							{
								OFFSET -6.592125 -0.646545 0.805568
								CHANNELS 3 Xrotation Yrotation Zrotation
								End Site
								{
									OFFSET 0.000179 20.275787 -0.000000
								}
							}
						}
					}
				}
				JOINT Bind_Right_JacketString
				{
					OFFSET -3.534800 11.969597 7.200700
					CHANNELS 3 Xrotation Yrotation Zrotation
					JOINT Bind_Right_JacketString1
					{
						OFFSET -0.319900 -6.102600 2.794100
						CHANNELS 3 Xrotation Yrotation Zrotation
						End Site
						{
							OFFSET 0.000000 6.719452 0.000000
						}
					}
				}
				JOINT Bind_Left_JacketString
				{
					OFFSET 2.904800 11.969597 7.200700
					CHANNELS 3 Xrotation Yrotation Zrotation
					JOINT Bind_Left_JacketString1
					{
						OFFSET 0.364800 -5.904503 3.186800
						CHANNELS 3 Xrotation Yrotation Zrotation
						End Site
						{
							OFFSET 0.000000 6.719513 0.000000
						}
					}
				}
				JOINT HairE
				{
					OFFSET 5.915200 17.612701 -11.592200
					CHANNELS 3 Xrotation Yrotation Zrotation
					JOINT HairE1
					{
						OFFSET 0.289200 -7.171898 -1.284500
						CHANNELS 3 Xrotation Yrotation Zrotation
						End Site
						{
							OFFSET 0.000000 7.291756 0.000000
						}
					}
				}
				JOINT HairF
				{
					OFFSET -0.864800 17.612701 -11.592200
					CHANNELS 3 Xrotation Yrotation Zrotation
					JOINT HairF1
					{
						OFFSET 0.000000 -14.087097 -2.127501
						CHANNELS 3 Xrotation Yrotation Zrotation
						End Site
						{
							OFFSET 0.000000 14.246841 0.000000
						}
					}
				}
				JOINT HairG
				{
					OFFSET -8.087700 17.612701 -11.592200
					CHANNELS 3 Xrotation Yrotation Zrotation
					JOINT HairG1
					{
						OFFSET -0.293600 -6.081398 -0.910100
						CHANNELS 3 Xrotation Yrotation Zrotation
						End Site
						{
							OFFSET 0.000000 6.156120 0.000000
						}
					}
				}
			}
		}
	}
	JOINT Pouch
	{
		OFFSET 0.000000 4.394501 10.847300
		CHANNELS 3 Xrotation Yrotation Zrotation
		End Site
		{
			OFFSET 0.000000 21.880577 0.000000
		}
	}
	JOINT Bag
	{
		OFFSET -13.229000 4.813004 -0.593300
		CHANNELS 3 Xrotation Yrotation Zrotation
		End Site
		{
			OFFSET 0.000000 21.880577 0.000000
		}
	}
	JOINT OccupyGuyFacialAnim_Joint
	{
		OFFSET 1.000000 -70.206398 -1.655000
		CHANNELS 3 Xrotation Yrotation Zrotation
		End Site
		{
			OFFSET 0.000000 21.880577 0.000000
		}
	}
}
MOTION
Frames: 4
Frame Time: 0.033333
-0.329620 55.604267 0.712894 -34.590817 -36.124608 -35.532608 -0.000000 0.000000 0.000002 -28.423480 5.258731 -9.705426 38.641959 0.487905 -0.379709 25.452867 2.840899 21.897491 0.000000 0.000000 0.000000 0.000001 -0.000002 -0.000001 -7.808256 -13.816086 -18.231991 98.126596 3.615956 1.295212 -9.810565 -2.166133 23.568360 -0.000002 -0.000000 -0.000000 -0.000001 0.000001 0.000001 14.110180 10.284084 -3.212365 1.361569 2.848186 0.144730 1.380796 2.822189 0.114124 3.479108 -1.932753 0.218967 8.764235 -20.296747 11.241924 -0.000000 0.000002 -0.000000 -0.000000 0.000002 -0.000000 -0.000000 0.000002 -0.000000 -0.000000 0.000002 -0.000000 -0.000000 0.000004 0.000000 -0.000000 0.000002 -0.000000 -0.000000 0.000004 0.000000 -0.000000 0.000002 -0.000000 -0.000000 0.000002 -0.000000 -1.714894 9.899175 0.739517 25.814890 24.343598 -19.738813 0.000005 -41.661750 0.000017 13.204661 -15.596037 -11.762212 4.972949 -0.919255 4.455757 7.416818 13.559473 3.778492 0.000002 -0.000000 -0.000006 0.332624 -2.971062 -1.456197 0.830595 3.008797 -30.858262 -0.000001 -0.000000 0.000002 -0.686688 0.199364 -14.655443 0.595564 2.575497 -26.036331 0.000001 -0.000000 0.000001 0.933458 5.741926 -20.414011 0.491130 2.349932 -23.606367 -0.000002 -0.000001 -0.000001 2.244602 16.205455 -22.664086 0.579248 2.541881 -25.670865 0.000000 0.000001 0.000003 0.000001 0.000002 0.000001 0.821066 3.691073 -4.575239 26.347554 -8.475437 14.188286 0.000004 36.224257 -0.000000 24.694443 8.350473 32.788760 3.998965 2.832319 -3.864444 7.802603 -15.416779 -4.481838 0.000002 0.000000 0.000001 0.387329 3.131515 0.644108 0.662452 -2.395983 30.906644 -0.000001 0.000001 0.000007 -0.709918 0.247536 13.910244 0.475073 -2.051036 26.079658 0.000000 -0.000003 0.000001 0.807597 -5.199868 19.769376 0.391790 -1.871438 23.646678 0.000001 -0.000003 -0.000001 1.997360 -15.634349 22.197609 0.462066 -2.024263 25.713736 -0.000001 0.000002 -0.000001 0.000002 0.000000 -0.000000 -0.000001 -0.000004 -0.000000 -0.000000 -0.000000 -0.000001 -0.000001 -0.000004 0.000001 -0.000001 -0.000004 0.000001 -0.000001 -0.000004 -0.000000 -0.000000 -0.000000 -0.000000 -0.000001 -0.000004 0.000001 -0.000001 -0.000004 0.000001 -0.000001 -0.000004 -0.000000 -0.000000 -0.000000 -0.000000 -0.000000 0.000000 0.000002 -0.000000 0.000000 0.000002 -0.000000 0.000000 0.000002 
-2.584845 58.125877 3.405148 -28.119798 -37.766172 -32.434523 0.000002 0.000001 0.000001 -32.057851 6.782593 -7.977273 41.599878 0.622333 -2.757791 27.104725 4.369868 25.836584 0.000000 -0.000002 0.000000 -0.000000 0.000000 0.000001 6.311759 -17.386387 -8.309134 79.148990 1.677094 4.492979 -30.818749 -9.854162 18.122054 0.000001 -0.000000 0.000000 -0.000000 0.000001 -0.000001 16.538337 6.912413 -1.401329 1.893153 2.316291 0.194628 1.914616 1.914026 0.224436 2.676226 -1.352584 0.573447 4.617172 -14.364011 9.975334 -0.000000 -0.000001 0.000000 -0.000000 -0.000001 0.000000 -0.000000 -0.000001 0.000000 -0.000000 -0.000001 -0.000000 -0.000000 0.000001 -0.000001 -0.000000 -0.000001 -0.000000 -0.000000 0.000001 -0.000001 -0.000000 -0.000001 0.000000 -0.000000 -0.000001 0.000000 0.815421 2.513731 -7.499835 21.196237 19.880623 -31.111915 -0.000003 -27.217848 -0.000002 13.709207 -8.075702 7.641334 3.599076 -3.129878 4.518285 7.780257 17.865796 4.110281 0.000002 0.000001 -0.000001 0.717020 -3.713482 0.133020 0.496438 2.362034 -23.735642 0.000004 0.000000 -0.000002 -0.594700 0.173445 -13.160355 0.349506 1.995028 -19.872005 0.000003 0.000000 -0.000001 1.130776 6.181474 -21.336954 0.296046 1.840456 -18.274178 -0.000000 -0.000003 0.000000 1.681779 16.871996 -23.524864 0.346859 1.987674 -19.795667 0.000004 -0.000002 -0.000001 0.000003 -0.000001 0.000003 2.791340 3.765642 3.254523 20.734040 -26.387509 20.584829 0.000005 58.506492 0.000002 21.546400 -9.109104 9.672644 2.696343 5.030450 -3.904434 8.096736 -19.725557 -4.770148 -0.000003 -0.000002 0.000001 0.778639 3.827220 -0.915237 0.397587 -1.884602 23.823562 -0.000001 -0.000000 0.000002 -0.612640 0.238934 12.458040 0.280974 -1.594713 19.983738 0.000004 0.000001 -0.000002 0.994886 -5.624054 20.746826 0.239144 -1.474671 18.422202 0.000001 0.000000 0.000003 1.429512 -16.274823 23.132609 0.280195 -1.592561 19.955465 0.000001 -0.000002 0.000004 -0.000000 -0.000000 0.000000 -0.000000 -0.000001 -0.000000 0.000000 0.000001 -0.000001 -0.000000 -0.000001 -0.000001 -0.000000 -0.000001 -0.000001 -0.000000 -0.000001 -0.000000 0.000000 0.000001 -0.000000 -0.000000 -0.000001 -0.000001 -0.000000 -0.000001 -0.000001 -0.000000 -0.000001 -0.000000 0.000000 0.000001 -0.000000 0.000002 0.000001 0.000001 0.000002 0.000001 0.000001 0.000002 0.000001 0.000001 
-3.172363 60.913414 5.221865 -21.238221 -37.891031 -29.628042 0.000000 0.000003 -0.000001 -30.035299 7.168050 -6.272120 40.463291 -4.452648 -4.680792 22.492580 3.082622 28.672912 0.000000 -0.000005 0.000001 0.000001 -0.000002 -0.000000 15.429404 -19.601443 -0.637858 57.900128 2.634480 5.907659 -33.795568 -13.961209 12.917507 -0.000000 0.000000 -0.000000 0.000000 -0.000002 0.000001 19.553783 3.894114 1.864984 2.615761 1.800347 0.502725 2.641060 0.884982 0.663589 2.078742 -0.802841 0.567438 0.997600 -9.240187 8.180450 -0.000000 0.000001 0.000000 -0.000000 0.000001 0.000000 -0.000000 0.000001 0.000000 -0.000000 0.000001 0.000001 -0.000000 -0.000001 0.000001 -0.000000 0.000001 0.000001 -0.000000 -0.000001 0.000001 -0.000000 0.000001 0.000000 -0.000000 0.000001 0.000000 1.479528 -4.155416 -14.428681 13.464115 13.905761 -37.892885 -0.000006 -16.289293 -0.000000 7.185973 5.526850 18.568223 2.191959 -5.346153 4.495207 8.123851 22.182986 4.441597 -0.000001 0.000002 -0.000001 1.140518 -4.441326 1.742332 0.244555 1.676605 -16.596584 0.000003 0.000001 -0.000003 -0.505369 0.150010 -11.654336 0.166684 1.388929 -13.685942 0.000001 0.000002 0.000001 1.341339 6.616157 -22.256395 0.148505 1.311988 -12.913998 -0.000002 0.000004 0.000001 1.136201 17.561945 -24.368032 0.171689 1.409278 -13.890692 -0.000001 -0.000001 -0.000001 -0.000001 0.000001 0.000000 4.672531 4.545182 10.282764 10.600759 -29.698025 26.475797 -0.000004 56.945145 -0.000006 15.103758 -11.328732 -18.658181 1.358729 7.232273 -3.864159 8.373048 -24.044602 -5.062809 -0.000001 0.000000 0.000003 1.206664 4.507915 -2.493339 0.197365 -1.342752 16.722528 0.000001 -0.000001 -0.000002 -0.518758 0.227533 10.995923 0.136007 -1.118419 13.865980 -0.000002 -0.000003 0.000002 1.195924 -6.043448 21.721588 0.122765 -1.063395 13.170949 -0.000002 -0.000003 -0.000004 0.880250 -16.940896 24.051972 0.141974 -1.142315 14.168396 -0.000001 -0.000001 0.000000 0.000000 -0.000001 0.000002 0.000001 0.000002 0.000000 0.000001 0.000000 0.000001 0.000001 0.000002 -0.000000 0.000001 0.000002 -0.000000 0.000001 0.000002 0.000000 0.000001 0.000000 0.000001 0.000001 0.000002 -0.000000 0.000001 0.000002 -0.000000 0.000001 0.000002 0.000000 0.000001 0.000000 0.000001 0.000000 0.000003 -0.000001 0.000000 0.000003 -0.000001 0.000000 0.000003 -0.000001 
-1.682804 62.993233 5.927461 -16.950236 -37.145519 -27.112366 -0.000000 0.000000 -0.000001 -28.466418 8.012900 -4.926747 41.410624 -7.869220 -6.608181 17.647636 0.471434 25.096707 0.000001 0.000002 -0.000001 0.000001 0.000002 -0.000003 21.705991 -20.648309 3.774023 39.439753 3.837675 6.321405 -32.065443 -17.652772 8.828907 -0.000000 0.000000 -0.000000 -0.000000 -0.000002 0.000002 23.124673 2.305899 4.022323 3.396532 1.304117 0.832936 3.422594 0.088779 1.144311 2.114087 -0.402464 0.392402 -3.524579 -5.759507 5.883667 0.000001 -0.000001 0.000000 0.000001 -0.000001 0.000000 0.000001 -0.000001 0.000000 0.000001 -0.000001 -0.000000 0.000001 -0.000001 -0.000000 0.000001 -0.000001 -0.000000 0.000001 -0.000001 -0.000000 0.000001 -0.000001 0.000000 0.000001 -0.000001 0.000000 0.859645 -10.833842 -19.533458 11.164520 14.410926 -42.012087 0.000002 -33.958854 -0.000003 7.138014 18.725396 19.762246 2.097316 -6.249669 3.805881 8.347600 25.074021 4.678573 -0.000001 0.000002 -0.000001 1.354962 -4.739151 1.799544 0.142226 1.284353 -12.637510 0.000001 0.000003 -0.000003 -0.487211 0.225040 -11.601911 0.109595 1.129012 -11.087848 0.000000 0.000002 -0.000001 1.559786 6.941393 -24.036190 0.124306 1.201712 -11.811812 -0.000000 -0.000000 -0.000000 0.975415 18.074967 -26.481449 0.141918 1.282948 -12.623379 0.000000 0.000001 -0.000002 0.000002 0.000000 -0.000000 5.755374 6.149011 15.751654 -1.556652 -22.295314 29.059545 -0.000004 46.666595 0.000011 10.038749 -2.949577 -27.403783 1.179663 8.198006 -3.226114 8.553337 -26.956532 -5.276234 -0.000000 -0.000001 0.000000 1.433661 4.816811 -2.645469 0.113598 -1.023405 12.667242 -0.000001 -0.000001 0.000002 -0.497409 0.156781 10.863103 0.087604 -0.900009 11.118739 -0.000000 -0.000001 0.000001 1.392640 -6.337056 23.414732 0.099451 -0.958315 11.849147 0.000000 -0.000001 -0.000003 0.680644 -17.414107 26.046720 0.113522 -1.023099 12.663365 -0.000000 0.000002 -0.000001 -0.000001 0.000001 0.000001 0.000001 0.000001 0.000001 0.000001 -0.000001 0.000000 0.000001 0.000001 0.000000 0.000001 0.000001 0.000000 0.000001 0.000001 0.000001 0.000001 -0.000001 0.000000 0.000001 0.000001 0.000000 0.000001 0.000001 0.000000 0.000001 0.000001 0.000001 0.000001 -0.000001 0.000000 -0.000000 0.000000 -0.000001 -0.000000 0.000000 -0.000001 -0.000000 0.000000 -0.000001 
